<?xml version="1.0" encoding="UTF-8" standalone="no"?>
<!-- Created with Inkscape (http://www.inkscape.org/) -->
<svg xmlns:dc="http://purl.org/dc/elements/1.1/" xmlns:cc="http://creativecommons.org/ns#" xmlns:rdf="http://www.w3.org/1999/02/22-rdf-syntax-ns#" xmlns:svg="http://www.w3.org/2000/svg" xmlns="http://www.w3.org/2000/svg" xmlns:sodipodi="http://sodipodi.sourceforge.net/DTD/sodipodi-0.dtd" xmlns:inkscape="http://www.inkscape.org/namespaces/inkscape" height="44.756348mm" width="45.567863mm" viewBox="0 0 161.46093 158.58548" id="svg3263" version="1.1" inkscape:version="0.91 r13725" sodipodi:docname="spider2.svg">
  <title id="title3277">Spider Silhouette</title>
  <defs id="defs3269"/>
  <sodipodi:namedview pagecolor="#ffffff" bordercolor="#666666" borderopacity="1" objecttolerance="10" gridtolerance="10" guidetolerance="10" inkscape:pageopacity="0" inkscape:pageshadow="2" inkscape:window-width="1366" inkscape:window-height="712" id="namedview3267" showgrid="false" fit-margin-top="0" fit-margin-left="0" fit-margin-right="0" fit-margin-bottom="0" inkscape:zoom="6.2313785" inkscape:cx="74.931374" inkscape:cy="19.507273" inkscape:window-x="0" inkscape:window-y="0" inkscape:window-maximized="1" inkscape:current-layer="svg3263"/>
  <metadata id="metadata3265">
    <rdf:RDF>
      <cc:Work rdf:about="">
        <dc:format>image/svg+xml</dc:format>
        <dc:type rdf:resource="http://purl.org/dc/dcmitype/StillImage"/>
        <dc:title>Spider Silhouette</dc:title>
        <dc:date>2017-04-05</dc:date>
        <dc:creator>
          <cc:Agent>
            <dc:title>Algot Runeman</dc:title>
          </cc:Agent>
        </dc:creator>
        <dc:rights>
          <cc:Agent>
            <dc:title>Algot Runeman</dc:title>
          </cc:Agent>
        </dc:rights>
        <dc:publisher>
          <cc:Agent>
            <dc:title>runeman.org</dc:title>
          </cc:Agent>
        </dc:publisher>
        <dc:identifier>spider2.svg</dc:identifier>
        <cc:license rdf:resource="http://creativecommons.org/publicdomain/zero/1.0/"/>
      </cc:Work>
      <cc:License rdf:about="http://creativecommons.org/publicdomain/zero/1.0/">
        <cc:permits rdf:resource="http://creativecommons.org/ns#Reproduction"/>
        <cc:permits rdf:resource="http://creativecommons.org/ns#Distribution"/>
        <cc:permits rdf:resource="http://creativecommons.org/ns#DerivativeWorks"/>
      </cc:License>
    </rdf:RDF>
  </metadata>
  <path style="fill:#000000;fill-rule:evenodd;stroke:#000000;stroke-width:0.23312953px;stroke-linecap:butt;stroke-linejoin:miter;stroke-opacity:1" d="m 104.77599,66.735562 6.12963,-3.538945 17.3571,7.414221 13.317,7.022516 0.70777,1.22592 10.04785,8.909953 0.94372,1.63456 8.05092,7.3386 -0.1727,0.64457 -9.27684,-6.6308 -1.46187,0.29913 -10.51971,-9.727224 -1.93371,-0.518143 -23.58383,-12.536888 0.12644,2.106416 11.44649,7.557589 c 0.0446,1.911891 -0.48971,3.100056 -2.1527,2.877421 l -11.79192,-6.268441 2.89438,5.956901 c -0.97277,4.303883 -2.43183,6.792879 -3.87984,9.323139 l -7.48197,2.14028 10.31312,2.76339 3.0671,5.312353 c -0.32767,1.28789 -0.85478,2.24338 -2.45187,1.41558 l -3.58519,-3.378643 -5.97386,-0.90983 20.4874,13.779763 8.22364,6.69403 13.08107,6.61387 8.22363,6.69403 -0.34541,1.28914 -15.42341,-6.89608 -9.04093,-6.22218 -24.9994,-14.98874 -7.688563,-4.823533 -4.482658,-7.76418 -1.267672,17.622383 5.022276,23.79827 1.293677,14.50903 1.685378,10.4689 -0.817272,0.47185 -4.02773,-10.75111 -1.81184,-12.5753 -7.364599,-24.08049 c 0,0 -2.026944,-9.95536 -0.885038,-14.744953 0.294087,-1.233513 1.916746,-3.2861 1.916746,-3.2861 l -0.678453,-7.781105 -18.751205,8.101735 -16.455145,11.134953 -10.624666,6.13416 -10.1528,6.95143 -0.707796,-1.22593 7.983137,-7.87819 10.089611,-8.00468 19.378857,-11.733223 9.289249,-3.728597 -18.7851,0.493349 L 29.576878,81.819293 9.9575783,78.980278 1.1063534,75.917708 c 0,0 -2.3423905,-0.282181 0.1726637,-0.644544 2.5150805,-0.362367 10.0139959,1.301531 10.0139959,1.301531 l 16.569176,1.330887 23.59622,2.177488 8.017065,-0.269804 c 0,0 -9.080115,-2.960794 -13.01783,-5.560677 -3.281432,-2.166571 -6.832627,-4.605504 -8.522804,-8.155872 -1.421355,-2.985683 -0.804877,-9.887532 -0.804877,-9.887532 0,0 3.261487,-7.416403 6.394896,-9.685504 2.50283,-1.81246 5.855431,-2.334045 8.943806,-2.439428 5.23484,-0.178626 15.406473,3.091868 15.406473,3.091868 l 7.798056,3.12575 -9.512786,-7.039451 -21.494335,-16.46754 -15.549822,-9.00252 -8.93142,-7.9199641 1.870484,-0.535074 8.804993,5.8135441 13.788847,7.839796 19.135036,12.381125 16.746443,14.849912 6.024645,12.322448 2.451845,-1.41558 -5.742446,-14.664793 -1.327548,-22.117438 0.892901,-9.77805 -0.316092,-5.2660531 1.63457,-0.94372 1.858095,9.8243271 1.028411,20.65558 2.612154,8.299256 c 0,0 3.658311,5.826639 4.151704,9.134677 0.280331,1.879527 -0.741708,5.652497 -0.741708,5.652497 l 3.040255,1.103544 3.142686,-3.993852 c 0,0 0.310343,-4.995077 1.255274,-7.262983 2.328,-5.587366 10.52755,-14.795767 10.52755,-14.795767 l 2.38863,-2.468807 10.0557,-15.61306 6.26845,-11.7919131 3.59762,-6.98077703 1.69778,0.1095 -9.39421,19.58997613 -7.60386,14.19748 -1.14577,5.565191 -3.61456,3.176579 -2.71711,7.562131 -7.43117,13.552899 3.45879,1.272204 z" id="path3195" inkscape:connector-curvature="0" sodipodi:nodetypes="ccccccccccccccccccccccccccccccccccccccccccccscccccccccccccccsccccsscsscccccccccccccccccccccscccscccccccccccccc" inkscape:export-xdpi="106.112" inkscape:export-ydpi="106.112"/>
</svg>